<svg aria-labelledby="chart-title-mermaid-1679438680131" aria-roledescription="er" role="graphics-document document" viewBox="0 -62 942.8994140625 528" style="max-width: 942.899px; background-color: white;" xmlns:xlink="http://www.w3.org/1999/xlink" xmlns="http://www.w3.org/2000/svg" width="100%" id="mermaid-1679438680131"><title id="chart-title-mermaid-1679438680131">Order example</title><style>#mermaid-1679438680131{font-family:"trebuchet ms",verdana,arial,sans-serif;font-size:16px;fill:#333;}#mermaid-1679438680131 .error-icon{fill:#552222;}#mermaid-1679438680131 .error-text{fill:#552222;stroke:#552222;}#mermaid-1679438680131 .edge-thickness-normal{stroke-width:2px;}#mermaid-1679438680131 .edge-thickness-thick{stroke-width:3.5px;}#mermaid-1679438680131 .edge-pattern-solid{stroke-dasharray:0;}#mermaid-1679438680131 .edge-pattern-dashed{stroke-dasharray:3;}#mermaid-1679438680131 .edge-pattern-dotted{stroke-dasharray:2;}#mermaid-1679438680131 .marker{fill:#333333;stroke:#333333;}#mermaid-1679438680131 .marker.cross{stroke:#333333;}#mermaid-1679438680131 svg{font-family:"trebuchet ms",verdana,arial,sans-serif;font-size:16px;}#mermaid-1679438680131 .entityBox{fill:#ECECFF;stroke:#9370DB;}#mermaid-1679438680131 .attributeBoxOdd{fill:#ffffff;stroke:#9370DB;}#mermaid-1679438680131 .attributeBoxEven{fill:#f2f2f2;stroke:#9370DB;}#mermaid-1679438680131 .relationshipLabelBox{fill:hsl(80, 100%, 96.2745098039%);opacity:0.7;background-color:hsl(80, 100%, 96.2745098039%);}#mermaid-1679438680131 .relationshipLabelBox rect{opacity:0.5;}#mermaid-1679438680131 .relationshipLine{stroke:#333333;}#mermaid-1679438680131 .entityTitleText{text-anchor:middle;font-size:18px;fill:#333;}#mermaid-1679438680131 :root{--mermaid-font-family:"trebuchet ms",verdana,arial,sans-serif;}</style><g/><defs><marker orient="auto" markerHeight="18" markerWidth="18" refY="9" refX="0" id="ONLY_ONE_START"><path d="M9,0 L9,18 M15,0 L15,18" fill="none" stroke="gray"/></marker></defs><defs><marker orient="auto" markerHeight="18" markerWidth="18" refY="9" refX="18" id="ONLY_ONE_END"><path d="M3,0 L3,18 M9,0 L9,18" fill="none" stroke="gray"/></marker></defs><defs><marker orient="auto" markerHeight="18" markerWidth="30" refY="9" refX="0" id="ZERO_OR_ONE_START"><circle r="6" cy="9" cx="21" fill="white" stroke="gray"/><path d="M9,0 L9,18" fill="none" stroke="gray"/></marker></defs><defs><marker orient="auto" markerHeight="18" markerWidth="30" refY="9" refX="30" id="ZERO_OR_ONE_END"><circle r="6" cy="9" cx="9" fill="white" stroke="gray"/><path d="M21,0 L21,18" fill="none" stroke="gray"/></marker></defs><defs><marker orient="auto" markerHeight="36" markerWidth="45" refY="18" refX="18" id="ONE_OR_MORE_START"><path d="M0,18 Q 18,0 36,18 Q 18,36 0,18 M42,9 L42,27" fill="none" stroke="gray"/></marker></defs><defs><marker orient="auto" markerHeight="36" markerWidth="45" refY="18" refX="27" id="ONE_OR_MORE_END"><path d="M3,9 L3,27 M9,18 Q27,0 45,18 Q27,36 9,18" fill="none" stroke="gray"/></marker></defs><defs><marker orient="auto" markerHeight="36" markerWidth="57" refY="18" refX="18" id="ZERO_OR_MORE_START"><circle r="6" cy="18" cx="48" fill="white" stroke="gray"/><path d="M0,18 Q18,0 36,18 Q18,36 0,18" fill="none" stroke="gray"/></marker></defs><defs><marker orient="auto" markerHeight="36" markerWidth="57" refY="18" refX="39" id="ZERO_OR_MORE_END"><circle r="6" cy="18" cx="9" fill="white" stroke="gray"/><path d="M21,18 Q39,0 57,18 Q39,36 21,18" fill="none" stroke="gray"/></marker></defs><path style="stroke: gray; fill: none;" marker-start="url(#ONLY_ONE_START)" marker-end="url(#ONLY_ONE_END)" d="M70,99L70,109.16666666666667C70,119.33333333333333,70,139.66666666666666,70,160C70,180.33333333333334,70,200.66666666666666,70,210.83333333333334L70,221" class="er relationshipLine"/><path style="stroke: gray; fill: none;" marker-start="url(#ZERO_OR_MORE_START)" marker-end="url(#ONLY_ONE_END)" d="M515.6154479980469,82.59581941675076L474.6795399983724,95.49651618062563C433.74363199869794,108.39721294450051,351.87181599934894,134.19860647225025,310.9359079996745,157.2659699027918C270,180.33333333333334,270,200.66666666666666,270,210.83333333333334L270,221" class="er relationshipLine"/><path style="stroke: gray; fill: none;" marker-start="url(#ONLY_ONE_START)" marker-end="url(#ZERO_OR_MORE_END)" d="M523.3945826480264,110L514.495485540022,118.33333333333333C505.5963884320176,126.66666666666667,487.79819421600877,143.33333333333334,478.89909710800436,161.83333333333334C470,180.33333333333334,470,200.66666666666666,470,210.83333333333334L470,221" class="er relationshipLine"/><path style="stroke: gray; fill: none;" marker-start="url(#ZERO_OR_MORE_START)" marker-end="url(#ZERO_OR_MORE_END)" d="M619.5048314144736,110L628.403928522478,118.33333333333333C637.3030256304825,126.66666666666667,655.1012198464913,143.33333333333334,664.0003169544956,160C672.8994140625,176.66666666666666,672.8994140625,193.33333333333334,672.8994140625,201.66666666666666L672.8994140625,210" class="er relationshipLine"/><path style="stroke: gray; fill: none;" marker-start="url(#ZERO_OR_MORE_START)" marker-end="url(#ONLY_ONE_END)" d="M470,267L470,277.1666666666667C470,287.3333333333333,470,307.6666666666667,470,326.1666666666667C470,344.6666666666667,470,361.3333333333333,470,369.6666666666667L470,378" class="er relationshipLine"/><path style="stroke: gray; fill: none;" marker-start="url(#ZERO_OR_MORE_START)" marker-end="url(#ONLY_ONE_END)" d="M672.8994140625,278L672.8994140625,286.3333333333333C672.8994140625,294.6666666666667,672.8994140625,311.3333333333333,672.8994140625,329.8333333333333C672.8994140625,348.3333333333333,672.8994140625,368.6666666666667,672.8994140625,378.8333333333333L672.8994140625,389" class="er relationshipLine"/><path style="stroke: gray; fill: none;" marker-start="url(#ZERO_OR_MORE_START)" marker-end="url(#ONLY_ONE_END)" d="M627.2839660644531,82.59581941675076L668.2198740641276,95.49651618062563C709.1557820638021,108.39721294450051,791.027598063151,134.19860647225025,831.9635060628256,157.2659699027918C872.8994140625,180.33333333333334,872.8994140625,200.66666666666666,872.8994140625,210.83333333333334L872.8994140625,221" class="er relationshipLine"/><g transform="translate(20,31 )" id="entity-users-33ae1e26-be31-5c1d-bf65-e859e9d0308e"><rect height="68" width="100" y="0" x="0" class="er entityBox"/><text style="dominant-baseline: middle; text-anchor: middle; font-size: 12px;" transform="translate(50,12)" y="0" x="0" id="text-entity-users-33ae1e26-be31-5c1d-bf65-e859e9d0308e" class="er entityLabel">users</text><rect height="22" width="42.14580535888672" y="24" x="0" class="er attributeBoxOdd"/><text style="dominant-baseline: middle; font-size: 10.2px;" transform="translate(5,35)" y="0" x="0" id="text-entity-users-33ae1e26-be31-5c1d-bf65-e859e9d0308e-attr-1-type" class="er entityLabel">string</text><rect height="22" width="57.85419464111328" y="24" x="42.14580535888672" class="er attributeBoxOdd"/><text style="dominant-baseline: middle; font-size: 10.2px;" transform="translate(47.14580535888672,35)" y="0" x="0" id="text-entity-users-33ae1e26-be31-5c1d-bf65-e859e9d0308e-attr-1-name" class="er entityLabel">name</text><rect height="22" width="42.14580535888672" y="46" x="0" class="er attributeBoxEven"/><text style="dominant-baseline: middle; font-size: 10.2px;" transform="translate(5,57)" y="0" x="0" id="text-entity-users-33ae1e26-be31-5c1d-bf65-e859e9d0308e-attr-2-type" class="er entityLabel">string</text><rect height="22" width="57.85419464111328" y="46" x="42.14580535888672" class="er attributeBoxEven"/><text style="dominant-baseline: middle; font-size: 10.2px;" transform="translate(47.14580535888672,57)" y="0" x="0" id="text-entity-users-33ae1e26-be31-5c1d-bf65-e859e9d0308e-attr-2-name" class="er entityLabel">password</text></g><g transform="translate(20,221 )" id="entity-roles-fb364614-3b4d-5b30-987f-43c2f326d9bb"><rect height="46" width="100" y="0" x="0" class="er entityBox"/><text style="dominant-baseline: middle; text-anchor: middle; font-size: 12px;" transform="translate(50,12)" y="0" x="0" id="text-entity-roles-fb364614-3b4d-5b30-987f-43c2f326d9bb" class="er entityLabel">roles</text><rect height="22" width="50.61009216308594" y="24" x="0" class="er attributeBoxOdd"/><text style="dominant-baseline: middle; font-size: 10.2px;" transform="translate(5,35)" y="0" x="0" id="text-entity-roles-fb364614-3b4d-5b30-987f-43c2f326d9bb-attr-1-type" class="er entityLabel">string</text><rect height="22" width="49.38990783691406" y="24" x="50.61009216308594" class="er attributeBoxOdd"/><text style="dominant-baseline: middle; font-size: 10.2px;" transform="translate(55.61009216308594,35)" y="0" x="0" id="text-entity-roles-fb364614-3b4d-5b30-987f-43c2f326d9bb-attr-1-name" class="er entityLabel">name</text></g><g transform="translate(515.6154479980469,20 )" id="entity-netbooks-35e19ed3-3c50-5632-be6b-5509a98fd2fa"><rect height="90" width="111.66851806640625" y="0" x="0" class="er entityBox"/><text style="dominant-baseline: middle; text-anchor: middle; font-size: 12px;" transform="translate(55.834259033203125,12)" y="0" x="0" id="text-entity-netbooks-35e19ed3-3c50-5632-be6b-5509a98fd2fa" class="er entityLabel">netbooks</text><rect height="22" width="36.61909484863281" y="24" x="0" class="er attributeBoxOdd"/><text style="dominant-baseline: middle; font-size: 10.2px;" transform="translate(5,35)" y="0" x="0" id="text-entity-netbooks-35e19ed3-3c50-5632-be6b-5509a98fd2fa-attr-1-type" class="er entityLabel">string</text><rect height="22" width="75.04942321777344" y="24" x="36.61909484863281" class="er attributeBoxOdd"/><text style="dominant-baseline: middle; font-size: 10.2px;" transform="translate(41.61909484863281,35)" y="0" x="0" id="text-entity-netbooks-35e19ed3-3c50-5632-be6b-5509a98fd2fa-attr-1-name" class="er entityLabel">serial</text><rect height="22" width="36.61909484863281" y="46" x="0" class="er attributeBoxEven"/><text style="dominant-baseline: middle; font-size: 10.2px;" transform="translate(5,57)" y="0" x="0" id="text-entity-netbooks-35e19ed3-3c50-5632-be6b-5509a98fd2fa-attr-2-type" class="er entityLabel">int</text><rect height="22" width="75.04942321777344" y="46" x="36.61909484863281" class="er attributeBoxEven"/><text style="dominant-baseline: middle; font-size: 10.2px;" transform="translate(41.61909484863281,57)" y="0" x="0" id="text-entity-netbooks-35e19ed3-3c50-5632-be6b-5509a98fd2fa-attr-2-name" class="er entityLabel">stock_number</text><rect height="22" width="36.61909484863281" y="68" x="0" class="er attributeBoxOdd"/><text style="dominant-baseline: middle; font-size: 10.2px;" transform="translate(5,79)" y="0" x="0" id="text-entity-netbooks-35e19ed3-3c50-5632-be6b-5509a98fd2fa-attr-3-type" class="er entityLabel">bool</text><rect height="22" width="75.04942321777344" y="68" x="36.61909484863281" class="er attributeBoxOdd"/><text style="dominant-baseline: middle; font-size: 10.2px;" transform="translate(41.61909484863281,79)" y="0" x="0" id="text-entity-netbooks-35e19ed3-3c50-5632-be6b-5509a98fd2fa-attr-3-name" class="er entityLabel">in_service</text></g><g transform="translate(220,221 )" id="entity-generations-e18eba20-182e-5b8e-8dd9-44b91c8aae0e"><rect height="46" width="100" y="0" x="0" class="er entityBox"/><text style="dominant-baseline: middle; text-anchor: middle; font-size: 12px;" transform="translate(50,12)" y="0" x="0" id="text-entity-generations-e18eba20-182e-5b8e-8dd9-44b91c8aae0e" class="er entityLabel">generations</text><rect height="22" width="50.61009216308594" y="24" x="0" class="er attributeBoxOdd"/><text style="dominant-baseline: middle; font-size: 10.2px;" transform="translate(5,35)" y="0" x="0" id="text-entity-generations-e18eba20-182e-5b8e-8dd9-44b91c8aae0e-attr-1-type" class="er entityLabel">string</text><rect height="22" width="49.38990783691406" y="24" x="50.61009216308594" class="er attributeBoxOdd"/><text style="dominant-baseline: middle; font-size: 10.2px;" transform="translate(55.61009216308594,35)" y="0" x="0" id="text-entity-generations-e18eba20-182e-5b8e-8dd9-44b91c8aae0e-attr-1-name" class="er entityLabel">name</text></g><g transform="translate(420,221 )" id="entity-addresses-f674a2cf-3b50-59b9-817e-69ab842a4d68"><rect height="46" width="100" y="0" x="0" class="er entityBox"/><text style="dominant-baseline: middle; text-anchor: middle; font-size: 12px;" transform="translate(50,12)" y="0" x="0" id="text-entity-addresses-f674a2cf-3b50-59b9-817e-69ab842a4d68" class="er entityLabel">addresses</text><rect height="22" width="50.34169006347656" y="24" x="0" class="er attributeBoxOdd"/><text style="dominant-baseline: middle; font-size: 10.2px;" transform="translate(5,35)" y="0" x="0" id="text-entity-addresses-f674a2cf-3b50-59b9-817e-69ab842a4d68-attr-1-type" class="er entityLabel">string</text><rect height="22" width="49.65830993652344" y="24" x="50.34169006347656" class="er attributeBoxOdd"/><text style="dominant-baseline: middle; font-size: 10.2px;" transform="translate(55.34169006347656,35)" y="0" x="0" id="text-entity-addresses-f674a2cf-3b50-59b9-817e-69ab842a4d68-attr-1-name" class="er entityLabel">value</text></g><g transform="translate(622.8994140625,210 )" id="entity-issues-189f6f34-2d1f-5885-b001-435b40496df4"><rect height="68" width="100" y="0" x="0" class="er entityBox"/><text style="dominant-baseline: middle; text-anchor: middle; font-size: 12px;" transform="translate(50,12)" y="0" x="0" id="text-entity-issues-189f6f34-2d1f-5885-b001-435b40496df4" class="er entityLabel">issues</text><rect height="22" width="37.60612487792969" y="24" x="0" class="er attributeBoxOdd"/><text style="dominant-baseline: middle; font-size: 10.2px;" transform="translate(5,35)" y="0" x="0" id="text-entity-issues-189f6f34-2d1f-5885-b001-435b40496df4-attr-1-type" class="er entityLabel">string</text><rect height="22" width="62.39387512207031" y="24" x="37.60612487792969" class="er attributeBoxOdd"/><text style="dominant-baseline: middle; font-size: 10.2px;" transform="translate(42.60612487792969,35)" y="0" x="0" id="text-entity-issues-189f6f34-2d1f-5885-b001-435b40496df4-attr-1-name" class="er entityLabel">description</text><rect height="22" width="37.60612487792969" y="46" x="0" class="er attributeBoxEven"/><text style="dominant-baseline: middle; font-size: 10.2px;" transform="translate(5,57)" y="0" x="0" id="text-entity-issues-189f6f34-2d1f-5885-b001-435b40496df4-attr-2-type" class="er entityLabel">string</text><rect height="22" width="62.39387512207031" y="46" x="37.60612487792969" class="er attributeBoxEven"/><text style="dominant-baseline: middle; font-size: 10.2px;" transform="translate(42.60612487792969,57)" y="0" x="0" id="text-entity-issues-189f6f34-2d1f-5885-b001-435b40496df4-attr-2-name" class="er entityLabel">extra</text></g><g transform="translate(417.1005859375,378 )" id="entity-addresstypes-e940f799-ced8-5c14-9a1f-2ef6d9d5ad4c"><rect height="68" width="105.798828125" y="0" x="0" class="er entityBox"/><text style="dominant-baseline: middle; text-anchor: middle; font-size: 12px;" transform="translate(52.8994140625,12)" y="0" x="0" id="text-entity-addresstypes-e940f799-ced8-5c14-9a1f-2ef6d9d5ad4c" class="er entityLabel">address_types</text><rect height="22" width="50.191986083984375" y="24" x="0" class="er attributeBoxOdd"/><text style="dominant-baseline: middle; font-size: 10.2px;" transform="translate(5,35)" y="0" x="0" id="text-entity-addresstypes-e940f799-ced8-5c14-9a1f-2ef6d9d5ad4c-attr-1-type" class="er entityLabel">string</text><rect height="22" width="55.606842041015625" y="24" x="50.191986083984375" class="er attributeBoxOdd"/><text style="dominant-baseline: middle; font-size: 10.2px;" transform="translate(55.191986083984375,35)" y="0" x="0" id="text-entity-addresstypes-e940f799-ced8-5c14-9a1f-2ef6d9d5ad4c-attr-1-name" class="er entityLabel">name</text><rect height="22" width="50.191986083984375" y="46" x="0" class="er attributeBoxEven"/><text style="dominant-baseline: middle; font-size: 10.2px;" transform="translate(5,57)" y="0" x="0" id="text-entity-addresstypes-e940f799-ced8-5c14-9a1f-2ef6d9d5ad4c-attr-2-type" class="er entityLabel">string</text><rect height="22" width="55.606842041015625" y="46" x="50.191986083984375" class="er attributeBoxEven"/><text style="dominant-baseline: middle; font-size: 10.2px;" transform="translate(55.191986083984375,57)" y="0" x="0" id="text-entity-addresstypes-e940f799-ced8-5c14-9a1f-2ef6d9d5ad4c-attr-2-name" class="er entityLabel">format</text></g><g transform="translate(622.8994140625,389 )" id="entity-issuetypes-27679966-307e-50d0-a12e-1e3c4b876f21"><rect height="46" width="100" y="0" x="0" class="er entityBox"/><text style="dominant-baseline: middle; text-anchor: middle; font-size: 12px;" transform="translate(50,12)" y="0" x="0" id="text-entity-issuetypes-27679966-307e-50d0-a12e-1e3c4b876f21" class="er entityLabel">issue_types</text><rect height="22" width="50.61009216308594" y="24" x="0" class="er attributeBoxOdd"/><text style="dominant-baseline: middle; font-size: 10.2px;" transform="translate(5,35)" y="0" x="0" id="text-entity-issuetypes-27679966-307e-50d0-a12e-1e3c4b876f21-attr-1-type" class="er entityLabel">string</text><rect height="22" width="49.38990783691406" y="24" x="50.61009216308594" class="er attributeBoxOdd"/><text style="dominant-baseline: middle; font-size: 10.2px;" transform="translate(55.61009216308594,35)" y="0" x="0" id="text-entity-issuetypes-27679966-307e-50d0-a12e-1e3c4b876f21-attr-1-name" class="er entityLabel">name</text></g><g transform="translate(822.8994140625,221 )" id="entity-brands-643bd60d-8f2d-5b25-b505-fe833ec39ed2"><rect height="46" width="100" y="0" x="0" class="er entityBox"/><text style="dominant-baseline: middle; text-anchor: middle; font-size: 12px;" transform="translate(50,12)" y="0" x="0" id="text-entity-brands-643bd60d-8f2d-5b25-b505-fe833ec39ed2" class="er entityLabel">brands</text><rect height="22" width="50.61009216308594" y="24" x="0" class="er attributeBoxOdd"/><text style="dominant-baseline: middle; font-size: 10.2px;" transform="translate(5,35)" y="0" x="0" id="text-entity-brands-643bd60d-8f2d-5b25-b505-fe833ec39ed2-attr-1-type" class="er entityLabel">string</text><rect height="22" width="49.38990783691406" y="24" x="50.61009216308594" class="er attributeBoxOdd"/><text style="dominant-baseline: middle; font-size: 10.2px;" transform="translate(55.61009216308594,35)" y="0" x="0" id="text-entity-brands-643bd60d-8f2d-5b25-b505-fe833ec39ed2-attr-1-name" class="er entityLabel">name</text></g><rect height="14" width="25.73828125" y="153" x="57.130859375" class="er relationshipLabelBox"/><text style="text-anchor: middle; dominant-baseline: middle; font-size: 12px;" y="160" x="70" id="rel1" class="er relationshipLabel">have</text><rect height="14" width="25.73828125" y="122.65232849121094" x="360.59295654296875" class="er relationshipLabelBox"/><text style="text-anchor: middle; dominant-baseline: middle; font-size: 12px;" y="129.65232849121094" x="373.46209716796875" id="rel2" class="er relationshipLabel">have</text><rect height="14" width="44.978515625" y="151.1429901123047" x="458.3126525878906" class="er relationshipLabelBox"/><text style="text-anchor: middle; dominant-baseline: middle; font-size: 12px;" y="158.1429901123047" x="480.8019104003906" id="rel3" class="er relationshipLabel">contains</text><rect height="14" width="25.73828125" y="146.22669982910156" x="647.0548706054688" class="er relationshipLabelBox"/><text style="text-anchor: middle; dominant-baseline: middle; font-size: 12px;" y="153.22669982910156" x="659.9240112304688" id="rel4" class="er relationshipLabel">have</text><rect height="14" width="25.73828125" y="315.5" x="457.130859375" class="er relationshipLabelBox"/><text style="text-anchor: middle; dominant-baseline: middle; font-size: 12px;" y="322.5" x="470" id="rel5" class="er relationshipLabel">have</text><rect height="14" width="25.73828125" y="326.5" x="660.0302734375" class="er relationshipLabelBox"/><text style="text-anchor: middle; dominant-baseline: middle; font-size: 12px;" y="333.5" x="672.8994140625" id="rel6" class="er relationshipLabel">have</text><rect height="14" width="35.796875" y="122.65283203125" x="751.5386962890625" class="er relationshipLabelBox"/><text style="text-anchor: middle; dominant-baseline: middle; font-size: 12px;" y="129.65283203125" x="769.4371337890625" id="rel7" class="er relationshipLabel">belong</text><text class="entityTitleText" y="-25" x="471.44970703125">Order example</text></svg>